<?xml version="1.0" standalone="no"?>
<!DOCTYPE svg PUBLIC "-//W3C//DTD SVG 20010904//EN"
 "http://www.w3.org/TR/2001/REC-SVG-20010904/DTD/svg10.dtd">
<svg version="1.0" xmlns="http://www.w3.org/2000/svg"
 width="300.000000pt" height="300.000000pt" viewBox="0 0 300.000000 300.000000"
 preserveAspectRatio="xMidYMid meet">

<g transform="translate(0.000000,300.000000) scale(0.100000,-0.100000)"
fill="#000000" stroke="none">
<path d="M0 1500 l0 -1500 1500 0 1500 0 0 1500 0 1500 -1500 0 -1500 0 0
-1500z m1809 930 c23 -11 60 -33 81 -50 35 -28 44 -30 116 -30 94 0 147 -13
192 -47 l32 -24 -29 -42 c-36 -51 -90 -108 -155 -165 l-49 -42 13 -47 c20 -73
51 -139 112 -238 30 -49 61 -101 68 -114 33 -65 28 -234 -11 -366 -74 -247
-271 -452 -536 -555 -137 -54 -323 -107 -463 -131 -145 -26 -501 -39 -525 -19
-16 13 -20 76 -7 97 4 7 46 19 93 28 157 27 349 89 471 152 115 60 178 140
178 227 0 37 -6 50 -32 77 -49 48 -159 96 -268 116 -120 22 -490 22 -720 0
-85 -8 -156 -13 -158 -12 -9 8 209 210 284 264 144 102 322 184 462 211 34 7
62 15 62 19 0 7 -222 107 -368 167 -51 21 -89 41 -85 45 12 10 186 64 278 85
64 15 121 19 288 19 l207 0 0 65 c0 75 22 131 76 197 40 49 107 98 162 118 57
21 178 18 231 -5z m550 -345 c59 -30 106 -83 129 -148 14 -40 25 -53 57 -69
81 -42 145 -108 145 -151 0 -20 -89 -54 -197 -75 l-81 -16 -17 -58 c-11 -39
-17 -108 -19 -207 -3 -141 -5 -153 -31 -208 -43 -88 -189 -228 -285 -275 -120
-58 -125 -56 -54 18 131 135 210 291 239 466 29 177 16 239 -85 404 -64 107
-110 206 -110 239 0 17 92 97 122 107 41 13 136 -1 187 -27z"/>
<path d="M1675 2275 c-30 -30 -32 -64 -4 -99 26 -33 79 -36 109 -6 30 30 27
83 -6 109 -35 28 -69 26 -99 -4z"/>
<path d="M2259 1942 c-45 -38 -16 -122 43 -122 26 0 68 44 68 73 0 28 -38 67
-67 67 -11 0 -31 -8 -44 -18z"/>
</g>
</svg>
